<svg>
  <symbol viewBox="0 0 19 18" id="archive">
    <svg width="19" height="18" viewBox="0 0 19 18" fill="none" xmlns="http://www.w3.org/2000/svg">
      <path d="M9.5 1.5L2 5.25L9.5 9L17 5.25L9.5 1.5Z" stroke-width="1.5" stroke-linecap="round"
        stroke-linejoin="round" />
      <path d="M2 12.75L9.5 16.5L17 12.75" stroke-width="1.5" stroke-linecap="round" stroke-linejoin="round" />
      <path d="M2 9L9.5 12.75L17 9" stroke-width="1.5" stroke-linecap="round" stroke-linejoin="round" />
    </svg>
  </symbol>

  <symbol viewBox="0 0 20 12" id="arrow-1">
    <svg width="20" height="12" viewBox="0 0 20 12" fill="none" xmlns="http://www.w3.org/2000/svg">
      <path d="M2 2L10 10L18 2" stroke-width="2" stroke-linecap="square" />
    </svg>
  </symbol>

  <symbol viewBox="0 0 28 12" id="arrow-2">
    <svg width="28" height="12" viewBox="0 0 28 12" fill="none" xmlns="http://www.w3.org/2000/svg">
      <path
        d="M24.3536 6.35355C24.5488 6.15829 24.5488 5.84171 24.3536 5.64645L21.1716 2.46447C20.9763 2.2692 20.6597 2.2692 20.4645 2.46447C20.2692 2.65973 20.2692 2.97631 20.4645 3.17157L23.2929 6L20.4645 8.82843C20.2692 9.02369 20.2692 9.34027 20.4645 9.53553C20.6597 9.7308 20.9763 9.7308 21.1716 9.53553L24.3536 6.35355ZM4 6.5H24V5.5H4V6.5Z" />
    </svg>
  </symbol>

  <symbol viewBox="0 0 21 21" id="close-big">
    <svg width="21" height="21" viewBox="0 0 21 21" fill="none" xmlns="http://www.w3.org/2000/svg">
      <path d="M19.6777 2L2 19.6777M19.6777 19.6777L2 2" stroke-width="3" />
    </svg>
  </symbol>

  <symbol viewBox="0 0 15 15" id="close-small">
    <svg width="15" height="15" viewBox="0 0 15 15" fill="none" xmlns="http://www.w3.org/2000/svg">
      <circle cx="7.5" cy="7.5" r="7.5" />
      <path d="M10.3284 3.96466L11.0355 4.67176L4.67157 11.0357L3.96447 10.3286L10.3284 3.96466Z" fill="white" />
      <path d="M11.0355 10.3286L10.3284 11.0357L3.96447 4.67176L4.67157 3.96466L11.0355 10.3286Z" fill="white" />
    </svg>
  </symbol>

  <symbol viewBox="0 0 13 12" id="like">
    <svg width="13" height="12" viewBox="0 0 13 12" fill="none" xmlns="http://www.w3.org/2000/svg">
      <path
        d="M9.425 0C8.294 0 7.2085 0.5297 6.5 1.36676C5.7915 0.5297 4.706 0 3.575 0C1.573 0 0 1.58256 0 3.59673C0 6.06866 2.21 8.08283 5.5575 11.1433L6.5 12L7.4425 11.1368C10.79 8.08283 13 6.06866 13 3.59673C13 1.58256 11.427 0 9.425 0ZM6.565 10.1689L6.5 10.2343L6.435 10.1689C3.341 7.35041 1.3 5.48665 1.3 3.59673C1.3 2.28883 2.275 1.3079 3.575 1.3079C4.576 1.3079 5.551 1.95531 5.8955 2.85123H7.111C7.449 1.95531 8.424 1.3079 9.425 1.3079C10.725 1.3079 11.7 2.28883 11.7 3.59673C11.7 5.48665 9.659 7.35041 6.565 10.1689Z" />
    </svg>
  </symbol>

  <symbol viewBox="0 0 10 18" id="pause-big">
    <svg width="10" height="18" viewBox="0 0 10 18" fill="none" xmlns="http://www.w3.org/2000/svg">
      <rect width="2" height="18" rx="1" />
      <rect x="8" width="2" height="18" rx="1" />
    </svg>
  </symbol>

  <symbol viewBox="0 0 20 20" id="pause-small">
    <svg width="20" height="20" viewBox="0 0 20 20" fill="none" xmlns="http://www.w3.org/2000/svg">
      <path d="M10 0C4.475 0 0 4.475 0 10C0 15.525 4.475 20 10 20C15.525 20 20 15.525 20 10C20 4.475 15.525 0 10 0Z" />
      <rect x="7" y="6" width="2" height="8" rx="1" fill="white" />
      <rect x="11" y="6" width="2" height="8" rx="1" fill="white" />
    </svg>
  </symbol>

  <symbol viewBox="0 0 12 16" id="play-big">
    <svg width="12" height="16" viewBox="0 0 12 16" fill="none" xmlns="http://www.w3.org/2000/svg">
      <path
        d="M1.69238 15.7965L11.5716 8.79964C12.1428 8.39982 12.1428 7.60018 11.5716 7.20036L1.69238 0.203465C0.994271 -0.296313 0 0.183473 0 1.00311V14.9969C0 15.8165 0.994271 16.2963 1.69238 15.7965Z" />
    </svg>
  </symbol>

  <symbol viewBox="0 0 56 56" id="paly-full">
    <svg width="56" height="56" viewBox="0 0 56 56" fill="none" xmlns="http://www.w3.org/2000/svg">
      <circle cx="28" cy="28" r="24.5" />
      <path
        d="M25.3078 37.096L36.8336 28.933C37.5 28.4665 37.5 27.5336 36.8336 27.0672L25.3078 18.9041C24.4934 18.321 23.3334 18.8808 23.3334 19.837V36.1631C23.3334 37.1194 24.4934 37.6791 25.3078 37.096Z"
        fill="white" />
    </svg>
  </symbol>

  <symbol viewBox="0 0 20 20" id="play-small">
    <svg width="20" height="20" viewBox="0 0 20 20" fill="none" xmlns="http://www.w3.org/2000/svg">
      <path
        d="M10 0C4.475 0 0 4.475 0 10C0 15.525 4.475 20 10 20C15.525 20 20 15.525 20 10C20 4.475 15.525 0 10 0ZM8 14.5V5.5L14 10L8 14.5Z" />
    </svg>
  </symbol>

  <svg width="24" height="24" viewBox="0 0 24 24" fill="none" xmlns="http://www.w3.org/2000/svg" id="search">
    <path
      d="M11 19C15.4183 19 19 15.4183 19 11C19 6.58172 15.4183 3 11 3C6.58172 3 3 6.58172 3 11C3 15.4183 6.58172 19 11 19Z"
      stroke-width="2" stroke-linecap="round" stroke-linejoin="round" />
    <path d="M21 21L16.65 16.65" stroke-width="2" stroke-linecap="round" stroke-linejoin="round" />
  </svg>

  <symbol viewBox="0 0 12 13" id="share">
    <svg width="12" height="13" viewBox="0 0 12 13" fill="none" xmlns="http://www.w3.org/2000/svg">
      <path
        d="M10 9.18876C9.49333 9.18876 9.04 9.38454 8.69333 9.69127L3.94 6.98293C3.97333 6.83283 4 6.68273 4 6.5261C4 6.36948 3.97333 6.21938 3.94 6.06928L8.64 3.38705C9 3.71335 9.47333 3.91566 10 3.91566C11.1067 3.91566 12 3.04116 12 1.95783C12 0.874498 11.1067 0 10 0C8.89333 0 8 0.874498 8 1.95783C8 2.11446 8.02667 2.26456 8.06 2.41466L3.36 5.09689C3 4.77058 2.52667 4.56827 2 4.56827C0.893333 4.56827 0 5.44277 0 6.5261C0 7.60944 0.893333 8.48394 2 8.48394C2.52667 8.48394 3 8.28163 3.36 7.95532L8.10667 10.6702C8.07333 10.8072 8.05333 10.9508 8.05333 11.0944C8.05333 12.1451 8.92667 13 10 13C11.0733 13 11.9467 12.1451 11.9467 11.0944C11.9467 10.0437 11.0733 9.18876 10 9.18876ZM10 1.30522C10.3667 1.30522 10.6667 1.5989 10.6667 1.95783C10.6667 2.31677 10.3667 2.61044 10 2.61044C9.63333 2.61044 9.33333 2.31677 9.33333 1.95783C9.33333 1.5989 9.63333 1.30522 10 1.30522ZM2 7.17871C1.63333 7.17871 1.33333 6.88504 1.33333 6.5261C1.33333 6.16717 1.63333 5.87349 2 5.87349C2.36667 5.87349 2.66667 6.16717 2.66667 6.5261C2.66667 6.88504 2.36667 7.17871 2 7.17871ZM10 11.76C9.63333 11.76 9.33333 11.4664 9.33333 11.1074C9.33333 10.7485 9.63333 10.4548 10 10.4548C10.3667 10.4548 10.6667 10.7485 10.6667 11.1074C10.6667 11.4664 10.3667 11.76 10 11.76Z" />
    </svg>
  </symbol>

  <symbol viewBox="0 0 20 20" id="social-ok">
    <svg width="20" height="20" viewBox="0 0 20 20" fill="none" xmlns="http://www.w3.org/2000/svg">
      <path
        d="M8.23378 6.14624C8.23378 7.0928 9.05694 7.86023 10.0724 7.86023C11.088 7.86023 11.9111 7.0928 11.9111 6.14624C11.9111 5.19968 11.088 4.43231 10.0724 4.43231C9.05694 4.43231 8.23378 5.19968 8.23378 6.14624Z" />
      <path fill-rule="evenodd" clip-rule="evenodd"
        d="M6 0C2.68629 0 0 2.68629 0 6V14C0 17.3137 2.68629 20 6 20H14C17.3137 20 20 17.3137 20 14V6C20 2.68629 17.3137 0 14 0H6ZM5.62436 6.14617C5.62436 3.85633 7.61571 2 10.0724 2C12.5292 2 14.5206 3.85633 14.5206 6.14617C14.5206 8.43606 12.5292 10.2925 10.0724 10.2925C7.61571 10.2925 5.62436 8.43606 5.62436 6.14617ZM14.5472 12.4252C14.4907 12.4674 13.4236 13.2535 11.6427 13.5916L14.3307 16.0748C14.8034 16.5147 14.804 17.2285 14.3321 17.6691C13.8602 18.1097 13.0946 18.1104 12.6216 17.6704L10.012 15.3016L7.64177 17.6552C7.4046 17.8846 7.08805 18 6.77109 18C6.46897 18 6.16645 17.8952 5.93169 17.6842C5.45075 17.252 5.43691 16.5384 5.90062 16.0902L8.4519 13.6048C6.62134 13.2746 5.51009 12.468 5.45295 12.4252C4.93171 12.0357 4.84811 11.3262 5.26591 10.8404C5.6839 10.3547 6.44492 10.2767 6.96616 10.6662C6.97719 10.6744 8.13936 11.4883 10.012 11.4895C11.8847 11.4883 13.0228 10.6744 13.0338 10.6662C13.5551 10.2767 14.3163 10.3547 14.7341 10.8404C15.1519 11.3262 15.0683 12.0357 14.5472 12.4252Z" />
    </svg>
  </symbol>

  <symbol viewBox="0 0 20 16" id="social-youtube">
    <svg width="20" height="16" viewBox="0 0 20 16" fill="none" xmlns="http://www.w3.org/2000/svg">
      <path
        d="M19.543 2.498C20 4.28 20 8 20 8C20 8 20 11.72 19.543 13.502C19.289 14.487 18.546 15.262 17.605 15.524C15.896 16 10 16 10 16C10 16 4.107 16 2.395 15.524C1.45 15.258 0.708 14.484 0.457 13.502C2.98023e-08 11.72 0 8 0 8C0 8 2.98023e-08 4.28 0.457 2.498C0.711 1.513 1.454 0.738 2.395 0.476C4.107 -1.78814e-07 10 0 10 0C10 0 15.896 -1.78814e-07 17.605 0.476C18.55 0.742 19.292 1.516 19.543 2.498ZM8 11.5L14 8L8 4.5V11.5Z"
        fill="#D2D5DD" />
    </svg>
  </symbol>
</svg>